  0
SECTION
  2
BLOCKS
  0
ENDSEC
  0
SECTION
  2
ENTITIES
  0
LINE
  8
0
 10
185.171
 20
0.11528
 11
186.296
 21
0.456711
  0
LINE
  8
0
 10
186.296
 20
0.456711
 11
187.333
 21
1.01117
  0
LINE
  8
0
 10
187.333
 20
1.01117
 11
188.243
 21
1.75735
  0
LINE
  8
0
 10
188.243
 20
1.75735
 11
188.989
 21
2.66656
  0
LINE
  8
0
 10
188.989
 20
2.66656
 11
189.543
 21
3.70389
  0
LINE
  8
0
 10
189.543
 20
3.70389
 11
189.885
 21
4.82945
  0
LINE
  8
0
 10
189.885
 20
4.82945
 11
190
 21
6
  0
LINE
  8
0
 10
190
 20
6
 11
190
 21
114
  0
LINE
  8
0
 10
190
 20
114
 11
189.885
 21
115.171
  0
LINE
  8
0
 10
189.885
 20
115.171
 11
189.543
 21
116.296
  0
LINE
  8
0
 10
189.543
 20
116.296
 11
188.989
 21
117.333
  0
LINE
  8
0
 10
188.989
 20
117.333
 11
188.243
 21
118.243
  0
LINE
  8
0
 10
188.243
 20
118.243
 11
187.333
 21
118.989
  0
LINE
  8
0
 10
187.333
 20
118.989
 11
186.296
 21
119.543
  0
LINE
  8
0
 10
186.296
 20
119.543
 11
185.171
 21
119.885
  0
LINE
  8
0
 10
185.171
 20
119.885
 11
184
 21
120
  0
LINE
  8
0
 10
184
 20
120
 11
6
 21
120
  0
LINE
  8
0
 10
6
 20
120
 11
4.82945
 21
119.885
  0
LINE
  8
0
 10
4.82945
 20
119.885
 11
3.70389
 21
119.543
  0
LINE
  8
0
 10
3.70389
 20
119.543
 11
2.66656
 21
118.989
  0
LINE
  8
0
 10
2.66656
 20
118.989
 11
1.75735
 21
118.243
  0
LINE
  8
0
 10
1.75735
 20
118.243
 11
1.01117
 21
117.333
  0
LINE
  8
0
 10
1.01117
 20
117.333
 11
0.456711
 21
116.296
  0
LINE
  8
0
 10
0.456711
 20
116.296
 11
0.11528
 21
115.171
  0
LINE
  8
0
 10
0.11528
 20
115.171
 11
0
 21
114
  0
LINE
  8
0
 10
0
 20
114
 11
0
 21
6
  0
LINE
  8
0
 10
0
 20
6
 11
0.11528
 21
4.82945
  0
LINE
  8
0
 10
0.11528
 20
4.82945
 11
0.456711
 21
3.70389
  0
LINE
  8
0
 10
0.456711
 20
3.70389
 11
1.01117
 21
2.66656
  0
LINE
  8
0
 10
1.01117
 20
2.66656
 11
1.75735
 21
1.75735
  0
LINE
  8
0
 10
1.75735
 20
1.75735
 11
2.66656
 21
1.01117
  0
LINE
  8
0
 10
2.66656
 20
1.01117
 11
3.70389
 21
0.456711
  0
LINE
  8
0
 10
3.70389
 20
0.456711
 11
4.82945
 21
0.11528
  0
LINE
  8
0
 10
4.82945
 20
0.11528
 11
6
 21
0
  0
LINE
  8
0
 10
6
 20
0
 11
184
 21
0
  0
LINE
  8
0
 10
184
 20
0
 11
185.171
 21
0.11528
  0
LINE
  8
0
 10
9.56104
 20
107.793
 11
9.13896
 21
107.921
  0
LINE
  8
0
 10
9.13896
 20
107.921
 11
8.74995
 21
108.129
  0
LINE
  8
0
 10
8.74995
 20
108.129
 11
8.409
 21
108.409
  0
LINE
  8
0
 10
8.409
 20
108.409
 11
8.12918
 21
108.75
  0
LINE
  8
0
 10
8.12918
 20
108.75
 11
7.92126
 21
109.139
  0
LINE
  8
0
 10
7.92126
 20
109.139
 11
7.79323
 21
109.561
  0
LINE
  8
0
 10
7.79323
 20
109.561
 11
7.75
 21
110
  0
LINE
  8
0
 10
7.75
 20
110
 11
7.79323
 21
110.439
  0
LINE
  8
0
 10
7.79323
 20
110.439
 11
7.92126
 21
110.861
  0
LINE
  8
0
 10
7.92126
 20
110.861
 11
8.12918
 21
111.25
  0
LINE
  8
0
 10
8.12918
 20
111.25
 11
8.409
 21
111.591
  0
LINE
  8
0
 10
8.409
 20
111.591
 11
8.74995
 21
111.871
  0
LINE
  8
0
 10
8.74995
 20
111.871
 11
9.13896
 21
112.079
  0
LINE
  8
0
 10
9.13896
 20
112.079
 11
9.56104
 21
112.207
  0
LINE
  8
0
 10
9.56104
 20
112.207
 11
10
 21
112.25
  0
LINE
  8
0
 10
10
 20
112.25
 11
10.4389
 21
112.207
  0
LINE
  8
0
 10
10.4389
 20
112.207
 11
10.861
 21
112.079
  0
LINE
  8
0
 10
10.861
 20
112.079
 11
11.25
 21
111.871
  0
LINE
  8
0
 10
11.25
 20
111.871
 11
11.591
 21
111.591
  0
LINE
  8
0
 10
11.591
 20
111.591
 11
11.8708
 21
111.25
  0
LINE
  8
0
 10
11.8708
 20
111.25
 11
12.0787
 21
110.861
  0
LINE
  8
0
 10
12.0787
 20
110.861
 11
12.2068
 21
110.439
  0
LINE
  8
0
 10
12.2068
 20
110.439
 11
12.25
 21
110
  0
LINE
  8
0
 10
12.25
 20
110
 11
12.2068
 21
109.561
  0
LINE
  8
0
 10
12.2068
 20
109.561
 11
12.0787
 21
109.139
  0
LINE
  8
0
 10
12.0787
 20
109.139
 11
11.8708
 21
108.75
  0
LINE
  8
0
 10
11.8708
 20
108.75
 11
11.591
 21
108.409
  0
LINE
  8
0
 10
11.591
 20
108.409
 11
11.25
 21
108.129
  0
LINE
  8
0
 10
11.25
 20
108.129
 11
10.861
 21
107.921
  0
LINE
  8
0
 10
10.861
 20
107.921
 11
10.4389
 21
107.793
  0
LINE
  8
0
 10
10.4389
 20
107.793
 11
10
 21
107.75
  0
LINE
  8
0
 10
10
 20
107.75
 11
9.56104
 21
107.793
  0
LINE
  8
0
 10
179.561
 20
107.793
 11
179.139
 21
107.921
  0
LINE
  8
0
 10
179.139
 20
107.921
 11
178.75
 21
108.129
  0
LINE
  8
0
 10
178.75
 20
108.129
 11
178.409
 21
108.409
  0
LINE
  8
0
 10
178.409
 20
108.409
 11
178.129
 21
108.75
  0
LINE
  8
0
 10
178.129
 20
108.75
 11
177.921
 21
109.139
  0
LINE
  8
0
 10
177.921
 20
109.139
 11
177.793
 21
109.561
  0
LINE
  8
0
 10
177.793
 20
109.561
 11
177.75
 21
110
  0
LINE
  8
0
 10
177.75
 20
110
 11
177.793
 21
110.439
  0
LINE
  8
0
 10
177.793
 20
110.439
 11
177.921
 21
110.861
  0
LINE
  8
0
 10
177.921
 20
110.861
 11
178.129
 21
111.25
  0
LINE
  8
0
 10
178.129
 20
111.25
 11
178.409
 21
111.591
  0
LINE
  8
0
 10
178.409
 20
111.591
 11
178.75
 21
111.871
  0
LINE
  8
0
 10
178.75
 20
111.871
 11
179.139
 21
112.079
  0
LINE
  8
0
 10
179.139
 20
112.079
 11
179.561
 21
112.207
  0
LINE
  8
0
 10
179.561
 20
112.207
 11
180
 21
112.25
  0
LINE
  8
0
 10
180
 20
112.25
 11
180.439
 21
112.207
  0
LINE
  8
0
 10
180.439
 20
112.207
 11
180.861
 21
112.079
  0
LINE
  8
0
 10
180.861
 20
112.079
 11
181.25
 21
111.871
  0
LINE
  8
0
 10
181.25
 20
111.871
 11
181.591
 21
111.591
  0
LINE
  8
0
 10
181.591
 20
111.591
 11
181.871
 21
111.25
  0
LINE
  8
0
 10
181.871
 20
111.25
 11
182.079
 21
110.861
  0
LINE
  8
0
 10
182.079
 20
110.861
 11
182.207
 21
110.439
  0
LINE
  8
0
 10
182.207
 20
110.439
 11
182.25
 21
110
  0
LINE
  8
0
 10
182.25
 20
110
 11
182.207
 21
109.561
  0
LINE
  8
0
 10
182.207
 20
109.561
 11
182.079
 21
109.139
  0
LINE
  8
0
 10
182.079
 20
109.139
 11
181.871
 21
108.75
  0
LINE
  8
0
 10
181.871
 20
108.75
 11
181.591
 21
108.409
  0
LINE
  8
0
 10
181.591
 20
108.409
 11
181.25
 21
108.129
  0
LINE
  8
0
 10
181.25
 20
108.129
 11
180.861
 21
107.921
  0
LINE
  8
0
 10
180.861
 20
107.921
 11
180.439
 21
107.793
  0
LINE
  8
0
 10
180.439
 20
107.793
 11
180
 21
107.75
  0
LINE
  8
0
 10
180
 20
107.75
 11
179.561
 21
107.793
  0
LINE
  8
0
 10
157.5
 20
87.5
 11
156.853
 21
87.5852
  0
LINE
  8
0
 10
156.853
 20
87.5852
 11
156.25
 21
87.8349
  0
LINE
  8
0
 10
156.25
 20
87.8349
 11
155.732
 21
88.2322
  0
LINE
  8
0
 10
155.732
 20
88.2322
 11
155.335
 21
88.75
  0
LINE
  8
0
 10
155.335
 20
88.75
 11
155.085
 21
89.353
  0
LINE
  8
0
 10
155.085
 20
89.353
 11
155
 21
90
  0
LINE
  8
0
 10
155
 20
90
 11
155.085
 21
90.647
  0
LINE
  8
0
 10
155.085
 20
90.647
 11
155.335
 21
91.25
  0
LINE
  8
0
 10
155.335
 20
91.25
 11
155.732
 21
91.7678
  0
LINE
  8
0
 10
155.732
 20
91.7678
 11
156.25
 21
92.1651
  0
LINE
  8
0
 10
156.25
 20
92.1651
 11
156.853
 21
92.4148
  0
LINE
  8
0
 10
156.853
 20
92.4148
 11
157.5
 21
92.5
  0
LINE
  8
0
 10
157.5
 20
92.5
 11
166.5
 21
92.5
  0
LINE
  8
0
 10
166.5
 20
92.5
 11
167.147
 21
92.4148
  0
LINE
  8
0
 10
167.147
 20
92.4148
 11
167.75
 21
92.1651
  0
LINE
  8
0
 10
167.75
 20
92.1651
 11
168.268
 21
91.7678
  0
LINE
  8
0
 10
168.268
 20
91.7678
 11
168.665
 21
91.25
  0
LINE
  8
0
 10
168.665
 20
91.25
 11
168.915
 21
90.647
  0
LINE
  8
0
 10
168.915
 20
90.647
 11
169
 21
90
  0
LINE
  8
0
 10
169
 20
90
 11
168.915
 21
89.353
  0
LINE
  8
0
 10
168.915
 20
89.353
 11
168.665
 21
88.75
  0
LINE
  8
0
 10
168.665
 20
88.75
 11
168.268
 21
88.2322
  0
LINE
  8
0
 10
168.268
 20
88.2322
 11
167.75
 21
87.8349
  0
LINE
  8
0
 10
167.75
 20
87.8349
 11
167.147
 21
87.5852
  0
LINE
  8
0
 10
167.147
 20
87.5852
 11
166.5
 21
87.5
  0
LINE
  8
0
 10
166.5
 20
87.5
 11
157.5
 21
87.5
  0
LINE
  8
0
 10
129.688
 20
85.9307
 11
129.388
 21
86.0218
  0
LINE
  8
0
 10
129.388
 20
86.0218
 11
129.111
 21
86.1696
  0
LINE
  8
0
 10
129.111
 20
86.1696
 11
128.869
 21
86.3686
  0
LINE
  8
0
 10
128.869
 20
86.3686
 11
128.67
 21
86.6111
  0
LINE
  8
0
 10
128.67
 20
86.6111
 11
128.522
 21
86.8877
  0
LINE
  8
0
 10
128.522
 20
86.8877
 11
128.431
 21
87.1879
  0
LINE
  8
0
 10
128.431
 20
87.1879
 11
128.4
 21
87.5
  0
LINE
  8
0
 10
128.4
 20
87.5
 11
128.431
 21
87.8121
  0
LINE
  8
0
 10
128.431
 20
87.8121
 11
128.522
 21
88.1123
  0
LINE
  8
0
 10
128.522
 20
88.1123
 11
128.67
 21
88.3889
  0
LINE
  8
0
 10
128.67
 20
88.3889
 11
128.869
 21
88.6314
  0
LINE
  8
0
 10
128.869
 20
88.6314
 11
129.111
 21
88.8304
  0
LINE
  8
0
 10
129.111
 20
88.8304
 11
129.388
 21
88.9782
  0
LINE
  8
0
 10
129.388
 20
88.9782
 11
129.688
 21
89.0693
  0
LINE
  8
0
 10
129.688
 20
89.0693
 11
130
 21
89.1
  0
LINE
  8
0
 10
130
 20
89.1
 11
130.312
 21
89.0693
  0
LINE
  8
0
 10
130.312
 20
89.0693
 11
130.612
 21
88.9782
  0
LINE
  8
0
 10
130.612
 20
88.9782
 11
130.889
 21
88.8304
  0
LINE
  8
0
 10
130.889
 20
88.8304
 11
131.131
 21
88.6314
  0
LINE
  8
0
 10
131.131
 20
88.6314
 11
131.33
 21
88.3889
  0
LINE
  8
0
 10
131.33
 20
88.3889
 11
131.478
 21
88.1123
  0
LINE
  8
0
 10
131.478
 20
88.1123
 11
131.569
 21
87.8121
  0
LINE
  8
0
 10
131.569
 20
87.8121
 11
131.6
 21
87.5
  0
LINE
  8
0
 10
131.6
 20
87.5
 11
131.569
 21
87.1879
  0
LINE
  8
0
 10
131.569
 20
87.1879
 11
131.478
 21
86.8877
  0
LINE
  8
0
 10
131.478
 20
86.8877
 11
131.33
 21
86.6111
  0
LINE
  8
0
 10
131.33
 20
86.6111
 11
131.131
 21
86.3686
  0
LINE
  8
0
 10
131.131
 20
86.3686
 11
130.889
 21
86.1696
  0
LINE
  8
0
 10
130.889
 20
86.1696
 11
130.612
 21
86.0218
  0
LINE
  8
0
 10
130.612
 20
86.0218
 11
130.312
 21
85.9307
  0
LINE
  8
0
 10
130.312
 20
85.9307
 11
130
 21
85.9
  0
LINE
  8
0
 10
130
 20
85.9
 11
129.688
 21
85.9307
  0
LINE
  8
0
 10
59.6879
 20
85.9307
 11
59.3877
 21
86.0218
  0
LINE
  8
0
 10
59.3877
 20
86.0218
 11
59.1111
 21
86.1696
  0
LINE
  8
0
 10
59.1111
 20
86.1696
 11
58.8686
 21
86.3686
  0
LINE
  8
0
 10
58.8686
 20
86.3686
 11
58.6696
 21
86.6111
  0
LINE
  8
0
 10
58.6696
 20
86.6111
 11
58.5218
 21
86.8877
  0
LINE
  8
0
 10
58.5218
 20
86.8877
 11
58.4307
 21
87.1879
  0
LINE
  8
0
 10
58.4307
 20
87.1879
 11
58.4
 21
87.5
  0
LINE
  8
0
 10
58.4
 20
87.5
 11
58.4307
 21
87.8121
  0
LINE
  8
0
 10
58.4307
 20
87.8121
 11
58.5218
 21
88.1123
  0
LINE
  8
0
 10
58.5218
 20
88.1123
 11
58.6696
 21
88.3889
  0
LINE
  8
0
 10
58.6696
 20
88.3889
 11
58.8686
 21
88.6314
  0
LINE
  8
0
 10
58.8686
 20
88.6314
 11
59.1111
 21
88.8304
  0
LINE
  8
0
 10
59.1111
 20
88.8304
 11
59.3877
 21
88.9782
  0
LINE
  8
0
 10
59.3877
 20
88.9782
 11
59.6879
 21
89.0693
  0
LINE
  8
0
 10
59.6879
 20
89.0693
 11
60
 21
89.1
  0
LINE
  8
0
 10
60
 20
89.1
 11
60.3121
 21
89.0693
  0
LINE
  8
0
 10
60.3121
 20
89.0693
 11
60.6123
 21
88.9782
  0
LINE
  8
0
 10
60.6123
 20
88.9782
 11
60.8889
 21
88.8304
  0
LINE
  8
0
 10
60.8889
 20
88.8304
 11
61.1314
 21
88.6314
  0
LINE
  8
0
 10
61.1314
 20
88.6314
 11
61.3304
 21
88.3889
  0
LINE
  8
0
 10
61.3304
 20
88.3889
 11
61.4782
 21
88.1123
  0
LINE
  8
0
 10
61.4782
 20
88.1123
 11
61.5692
 21
87.8121
  0
LINE
  8
0
 10
61.5692
 20
87.8121
 11
61.6
 21
87.5
  0
LINE
  8
0
 10
61.6
 20
87.5
 11
61.5692
 21
87.1879
  0
LINE
  8
0
 10
61.5692
 20
87.1879
 11
61.4782
 21
86.8877
  0
LINE
  8
0
 10
61.4782
 20
86.8877
 11
61.3304
 21
86.6111
  0
LINE
  8
0
 10
61.3304
 20
86.6111
 11
61.1314
 21
86.3686
  0
LINE
  8
0
 10
61.1314
 20
86.3686
 11
60.8889
 21
86.1696
  0
LINE
  8
0
 10
60.8889
 20
86.1696
 11
60.6123
 21
86.0218
  0
LINE
  8
0
 10
60.6123
 20
86.0218
 11
60.3121
 21
85.9307
  0
LINE
  8
0
 10
60.3121
 20
85.9307
 11
60
 21
85.9
  0
LINE
  8
0
 10
60
 20
85.9
 11
59.6879
 21
85.9307
  0
LINE
  8
0
 10
157.5
 20
67.5
 11
156.853
 21
67.5852
  0
LINE
  8
0
 10
156.853
 20
67.5852
 11
156.25
 21
67.8349
  0
LINE
  8
0
 10
156.25
 20
67.8349
 11
155.732
 21
68.2322
  0
LINE
  8
0
 10
155.732
 20
68.2322
 11
155.335
 21
68.75
  0
LINE
  8
0
 10
155.335
 20
68.75
 11
155.085
 21
69.353
  0
LINE
  8
0
 10
155.085
 20
69.353
 11
155
 21
70
  0
LINE
  8
0
 10
155
 20
70
 11
155.085
 21
70.647
  0
LINE
  8
0
 10
155.085
 20
70.647
 11
155.335
 21
71.25
  0
LINE
  8
0
 10
155.335
 20
71.25
 11
155.732
 21
71.7678
  0
LINE
  8
0
 10
155.732
 20
71.7678
 11
156.25
 21
72.1651
  0
LINE
  8
0
 10
156.25
 20
72.1651
 11
156.853
 21
72.4148
  0
LINE
  8
0
 10
156.853
 20
72.4148
 11
157.5
 21
72.5
  0
LINE
  8
0
 10
157.5
 20
72.5
 11
166.5
 21
72.5
  0
LINE
  8
0
 10
166.5
 20
72.5
 11
167.147
 21
72.4148
  0
LINE
  8
0
 10
167.147
 20
72.4148
 11
167.75
 21
72.1651
  0
LINE
  8
0
 10
167.75
 20
72.1651
 11
168.268
 21
71.7678
  0
LINE
  8
0
 10
168.268
 20
71.7678
 11
168.665
 21
71.25
  0
LINE
  8
0
 10
168.665
 20
71.25
 11
168.915
 21
70.647
  0
LINE
  8
0
 10
168.915
 20
70.647
 11
169
 21
70
  0
LINE
  8
0
 10
169
 20
70
 11
168.915
 21
69.353
  0
LINE
  8
0
 10
168.915
 20
69.353
 11
168.665
 21
68.75
  0
LINE
  8
0
 10
168.665
 20
68.75
 11
168.268
 21
68.2322
  0
LINE
  8
0
 10
168.268
 20
68.2322
 11
167.75
 21
67.8349
  0
LINE
  8
0
 10
167.75
 20
67.8349
 11
167.147
 21
67.5852
  0
LINE
  8
0
 10
167.147
 20
67.5852
 11
166.5
 21
67.5
  0
LINE
  8
0
 10
166.5
 20
67.5
 11
157.5
 21
67.5
  0
LINE
  8
0
 10
157.5
 20
47.5
 11
156.853
 21
47.5852
  0
LINE
  8
0
 10
156.853
 20
47.5852
 11
156.25
 21
47.8349
  0
LINE
  8
0
 10
156.25
 20
47.8349
 11
155.732
 21
48.2322
  0
LINE
  8
0
 10
155.732
 20
48.2322
 11
155.335
 21
48.75
  0
LINE
  8
0
 10
155.335
 20
48.75
 11
155.085
 21
49.353
  0
LINE
  8
0
 10
155.085
 20
49.353
 11
155
 21
50
  0
LINE
  8
0
 10
155
 20
50
 11
155.085
 21
50.647
  0
LINE
  8
0
 10
155.085
 20
50.647
 11
155.335
 21
51.25
  0
LINE
  8
0
 10
155.335
 20
51.25
 11
155.732
 21
51.7678
  0
LINE
  8
0
 10
155.732
 20
51.7678
 11
156.25
 21
52.1651
  0
LINE
  8
0
 10
156.25
 20
52.1651
 11
156.853
 21
52.4148
  0
LINE
  8
0
 10
156.853
 20
52.4148
 11
157.5
 21
52.5
  0
LINE
  8
0
 10
157.5
 20
52.5
 11
166.5
 21
52.5
  0
LINE
  8
0
 10
166.5
 20
52.5
 11
167.147
 21
52.4148
  0
LINE
  8
0
 10
167.147
 20
52.4148
 11
167.75
 21
52.1651
  0
LINE
  8
0
 10
167.75
 20
52.1651
 11
168.268
 21
51.7678
  0
LINE
  8
0
 10
168.268
 20
51.7678
 11
168.665
 21
51.25
  0
LINE
  8
0
 10
168.665
 20
51.25
 11
168.915
 21
50.647
  0
LINE
  8
0
 10
168.915
 20
50.647
 11
169
 21
50
  0
LINE
  8
0
 10
169
 20
50
 11
168.915
 21
49.353
  0
LINE
  8
0
 10
168.915
 20
49.353
 11
168.665
 21
48.75
  0
LINE
  8
0
 10
168.665
 20
48.75
 11
168.268
 21
48.2322
  0
LINE
  8
0
 10
168.268
 20
48.2322
 11
167.75
 21
47.8349
  0
LINE
  8
0
 10
167.75
 20
47.8349
 11
167.147
 21
47.5852
  0
LINE
  8
0
 10
167.147
 20
47.5852
 11
166.5
 21
47.5
  0
LINE
  8
0
 10
166.5
 20
47.5
 11
157.5
 21
47.5
  0
LINE
  8
0
 10
59.6879
 20
30.9307
 11
59.3877
 21
31.0218
  0
LINE
  8
0
 10
59.3877
 20
31.0218
 11
59.1111
 21
31.1696
  0
LINE
  8
0
 10
59.1111
 20
31.1696
 11
58.8686
 21
31.3686
  0
LINE
  8
0
 10
58.8686
 20
31.3686
 11
58.6696
 21
31.6111
  0
LINE
  8
0
 10
58.6696
 20
31.6111
 11
58.5218
 21
31.8877
  0
LINE
  8
0
 10
58.5218
 20
31.8877
 11
58.4307
 21
32.1879
  0
LINE
  8
0
 10
58.4307
 20
32.1879
 11
58.4
 21
32.5
  0
LINE
  8
0
 10
58.4
 20
32.5
 11
58.4307
 21
32.8121
  0
LINE
  8
0
 10
58.4307
 20
32.8121
 11
58.5218
 21
33.1123
  0
LINE
  8
0
 10
58.5218
 20
33.1123
 11
58.6696
 21
33.3889
  0
LINE
  8
0
 10
58.6696
 20
33.3889
 11
58.8686
 21
33.6314
  0
LINE
  8
0
 10
58.8686
 20
33.6314
 11
59.1111
 21
33.8304
  0
LINE
  8
0
 10
59.1111
 20
33.8304
 11
59.3877
 21
33.9782
  0
LINE
  8
0
 10
59.3877
 20
33.9782
 11
59.6879
 21
34.0692
  0
LINE
  8
0
 10
59.6879
 20
34.0692
 11
60
 21
34.1
  0
LINE
  8
0
 10
60
 20
34.1
 11
60.3121
 21
34.0692
  0
LINE
  8
0
 10
60.3121
 20
34.0692
 11
60.6123
 21
33.9782
  0
LINE
  8
0
 10
60.6123
 20
33.9782
 11
60.8889
 21
33.8304
  0
LINE
  8
0
 10
60.8889
 20
33.8304
 11
61.1314
 21
33.6314
  0
LINE
  8
0
 10
61.1314
 20
33.6314
 11
61.3304
 21
33.3889
  0
LINE
  8
0
 10
61.3304
 20
33.3889
 11
61.4782
 21
33.1123
  0
LINE
  8
0
 10
61.4782
 20
33.1123
 11
61.5692
 21
32.8121
  0
LINE
  8
0
 10
61.5692
 20
32.8121
 11
61.6
 21
32.5
  0
LINE
  8
0
 10
61.6
 20
32.5
 11
61.5692
 21
32.1879
  0
LINE
  8
0
 10
61.5692
 20
32.1879
 11
61.4782
 21
31.8877
  0
LINE
  8
0
 10
61.4782
 20
31.8877
 11
61.3304
 21
31.6111
  0
LINE
  8
0
 10
61.3304
 20
31.6111
 11
61.1314
 21
31.3686
  0
LINE
  8
0
 10
61.1314
 20
31.3686
 11
60.8889
 21
31.1696
  0
LINE
  8
0
 10
60.8889
 20
31.1696
 11
60.6123
 21
31.0218
  0
LINE
  8
0
 10
60.6123
 20
31.0218
 11
60.3121
 21
30.9307
  0
LINE
  8
0
 10
60.3121
 20
30.9307
 11
60
 21
30.9
  0
LINE
  8
0
 10
60
 20
30.9
 11
59.6879
 21
30.9307
  0
LINE
  8
0
 10
129.688
 20
30.9307
 11
129.388
 21
31.0218
  0
LINE
  8
0
 10
129.388
 20
31.0218
 11
129.111
 21
31.1696
  0
LINE
  8
0
 10
129.111
 20
31.1696
 11
128.869
 21
31.3686
  0
LINE
  8
0
 10
128.869
 20
31.3686
 11
128.67
 21
31.6111
  0
LINE
  8
0
 10
128.67
 20
31.6111
 11
128.522
 21
31.8877
  0
LINE
  8
0
 10
128.522
 20
31.8877
 11
128.431
 21
32.1879
  0
LINE
  8
0
 10
128.431
 20
32.1879
 11
128.4
 21
32.5
  0
LINE
  8
0
 10
128.4
 20
32.5
 11
128.431
 21
32.8121
  0
LINE
  8
0
 10
128.431
 20
32.8121
 11
128.522
 21
33.1123
  0
LINE
  8
0
 10
128.522
 20
33.1123
 11
128.67
 21
33.3889
  0
LINE
  8
0
 10
128.67
 20
33.3889
 11
128.869
 21
33.6314
  0
LINE
  8
0
 10
128.869
 20
33.6314
 11
129.111
 21
33.8304
  0
LINE
  8
0
 10
129.111
 20
33.8304
 11
129.388
 21
33.9782
  0
LINE
  8
0
 10
129.388
 20
33.9782
 11
129.688
 21
34.0692
  0
LINE
  8
0
 10
129.688
 20
34.0692
 11
130
 21
34.1
  0
LINE
  8
0
 10
130
 20
34.1
 11
130.312
 21
34.0692
  0
LINE
  8
0
 10
130.312
 20
34.0692
 11
130.612
 21
33.9782
  0
LINE
  8
0
 10
130.612
 20
33.9782
 11
130.889
 21
33.8304
  0
LINE
  8
0
 10
130.889
 20
33.8304
 11
131.131
 21
33.6314
  0
LINE
  8
0
 10
131.131
 20
33.6314
 11
131.33
 21
33.3889
  0
LINE
  8
0
 10
131.33
 20
33.3889
 11
131.478
 21
33.1123
  0
LINE
  8
0
 10
131.478
 20
33.1123
 11
131.569
 21
32.8121
  0
LINE
  8
0
 10
131.569
 20
32.8121
 11
131.6
 21
32.5
  0
LINE
  8
0
 10
131.6
 20
32.5
 11
131.569
 21
32.1879
  0
LINE
  8
0
 10
131.569
 20
32.1879
 11
131.478
 21
31.8877
  0
LINE
  8
0
 10
131.478
 20
31.8877
 11
131.33
 21
31.6111
  0
LINE
  8
0
 10
131.33
 20
31.6111
 11
131.131
 21
31.3686
  0
LINE
  8
0
 10
131.131
 20
31.3686
 11
130.889
 21
31.1696
  0
LINE
  8
0
 10
130.889
 20
31.1696
 11
130.612
 21
31.0218
  0
LINE
  8
0
 10
130.612
 20
31.0218
 11
130.312
 21
30.9307
  0
LINE
  8
0
 10
130.312
 20
30.9307
 11
130
 21
30.9
  0
LINE
  8
0
 10
130
 20
30.9
 11
129.688
 21
30.9307
  0
LINE
  8
0
 10
157.5
 20
27.5
 11
156.853
 21
27.5852
  0
LINE
  8
0
 10
156.853
 20
27.5852
 11
156.25
 21
27.8349
  0
LINE
  8
0
 10
156.25
 20
27.8349
 11
155.732
 21
28.2322
  0
LINE
  8
0
 10
155.732
 20
28.2322
 11
155.335
 21
28.75
  0
LINE
  8
0
 10
155.335
 20
28.75
 11
155.085
 21
29.353
  0
LINE
  8
0
 10
155.085
 20
29.353
 11
155
 21
30
  0
LINE
  8
0
 10
155
 20
30
 11
155.085
 21
30.647
  0
LINE
  8
0
 10
155.085
 20
30.647
 11
155.335
 21
31.25
  0
LINE
  8
0
 10
155.335
 20
31.25
 11
155.732
 21
31.7678
  0
LINE
  8
0
 10
155.732
 20
31.7678
 11
156.25
 21
32.1651
  0
LINE
  8
0
 10
156.25
 20
32.1651
 11
156.853
 21
32.4148
  0
LINE
  8
0
 10
156.853
 20
32.4148
 11
157.5
 21
32.5
  0
LINE
  8
0
 10
157.5
 20
32.5
 11
166.5
 21
32.5
  0
LINE
  8
0
 10
166.5
 20
32.5
 11
167.147
 21
32.4148
  0
LINE
  8
0
 10
167.147
 20
32.4148
 11
167.75
 21
32.1651
  0
LINE
  8
0
 10
167.75
 20
32.1651
 11
168.268
 21
31.7678
  0
LINE
  8
0
 10
168.268
 20
31.7678
 11
168.665
 21
31.25
  0
LINE
  8
0
 10
168.665
 20
31.25
 11
168.915
 21
30.647
  0
LINE
  8
0
 10
168.915
 20
30.647
 11
169
 21
30
  0
LINE
  8
0
 10
169
 20
30
 11
168.915
 21
29.353
  0
LINE
  8
0
 10
168.915
 20
29.353
 11
168.665
 21
28.75
  0
LINE
  8
0
 10
168.665
 20
28.75
 11
168.268
 21
28.2322
  0
LINE
  8
0
 10
168.268
 20
28.2322
 11
167.75
 21
27.8349
  0
LINE
  8
0
 10
167.75
 20
27.8349
 11
167.147
 21
27.5852
  0
LINE
  8
0
 10
167.147
 20
27.5852
 11
166.5
 21
27.5
  0
LINE
  8
0
 10
166.5
 20
27.5
 11
157.5
 21
27.5
  0
LINE
  8
0
 10
8
 20
16
 11
7.48236
 21
16.0681
  0
LINE
  8
0
 10
7.48236
 20
16.0681
 11
7
 21
16.2679
  0
LINE
  8
0
 10
7
 20
16.2679
 11
6.58578
 21
16.5858
  0
LINE
  8
0
 10
6.58578
 20
16.5858
 11
6.26794
 21
17
  0
LINE
  8
0
 10
6.26794
 20
17
 11
6.06815
 21
17.4824
  0
LINE
  8
0
 10
6.06815
 20
17.4824
 11
6
 21
18
  0
LINE
  8
0
 10
6
 20
18
 11
6.06815
 21
18.5176
  0
LINE
  8
0
 10
6.06815
 20
18.5176
 11
6.26794
 21
19
  0
LINE
  8
0
 10
6.26794
 20
19
 11
6.58578
 21
19.4142
  0
LINE
  8
0
 10
6.58578
 20
19.4142
 11
7
 21
19.732
  0
LINE
  8
0
 10
7
 20
19.732
 11
7.48236
 21
19.9318
  0
LINE
  8
0
 10
7.48236
 20
19.9318
 11
8
 21
20
  0
LINE
  8
0
 10
8
 20
20
 11
36
 21
20
  0
LINE
  8
0
 10
36
 20
20
 11
36.5176
 21
19.9318
  0
LINE
  8
0
 10
36.5176
 20
19.9318
 11
37
 21
19.732
  0
LINE
  8
0
 10
37
 20
19.732
 11
37.4142
 21
19.4142
  0
LINE
  8
0
 10
37.4142
 20
19.4142
 11
37.732
 21
19
  0
LINE
  8
0
 10
37.732
 20
19
 11
37.9318
 21
18.5176
  0
LINE
  8
0
 10
37.9318
 20
18.5176
 11
38
 21
18
  0
LINE
  8
0
 10
38
 20
18
 11
37.9318
 21
17.4824
  0
LINE
  8
0
 10
37.9318
 20
17.4824
 11
37.732
 21
17
  0
LINE
  8
0
 10
37.732
 20
17
 11
37.4142
 21
16.5858
  0
LINE
  8
0
 10
37.4142
 20
16.5858
 11
37
 21
16.2679
  0
LINE
  8
0
 10
37
 20
16.2679
 11
36.5176
 21
16.0681
  0
LINE
  8
0
 10
36.5176
 20
16.0681
 11
36
 21
16
  0
LINE
  8
0
 10
36
 20
16
 11
8
 21
16
  0
LINE
  8
0
 10
9.56104
 20
7.79323
 11
9.13896
 21
7.92126
  0
LINE
  8
0
 10
9.13896
 20
7.92126
 11
8.74995
 21
8.12918
  0
LINE
  8
0
 10
8.74995
 20
8.12918
 11
8.409
 21
8.409
  0
LINE
  8
0
 10
8.409
 20
8.409
 11
8.12918
 21
8.74995
  0
LINE
  8
0
 10
8.12918
 20
8.74995
 11
7.92126
 21
9.13896
  0
LINE
  8
0
 10
7.92126
 20
9.13896
 11
7.79323
 21
9.56104
  0
LINE
  8
0
 10
7.79323
 20
9.56104
 11
7.75
 21
10
  0
LINE
  8
0
 10
7.75
 20
10
 11
7.79323
 21
10.4389
  0
LINE
  8
0
 10
7.79323
 20
10.4389
 11
7.92126
 21
10.861
  0
LINE
  8
0
 10
7.92126
 20
10.861
 11
8.12918
 21
11.25
  0
LINE
  8
0
 10
8.12918
 20
11.25
 11
8.409
 21
11.591
  0
LINE
  8
0
 10
8.409
 20
11.591
 11
8.74995
 21
11.8708
  0
LINE
  8
0
 10
8.74995
 20
11.8708
 11
9.13896
 21
12.0787
  0
LINE
  8
0
 10
9.13896
 20
12.0787
 11
9.56104
 21
12.2068
  0
LINE
  8
0
 10
9.56104
 20
12.2068
 11
10
 21
12.25
  0
LINE
  8
0
 10
10
 20
12.25
 11
10.4389
 21
12.2068
  0
LINE
  8
0
 10
10.4389
 20
12.2068
 11
10.861
 21
12.0787
  0
LINE
  8
0
 10
10.861
 20
12.0787
 11
11.25
 21
11.8708
  0
LINE
  8
0
 10
11.25
 20
11.8708
 11
11.591
 21
11.591
  0
LINE
  8
0
 10
11.591
 20
11.591
 11
11.8708
 21
11.25
  0
LINE
  8
0
 10
11.8708
 20
11.25
 11
12.0787
 21
10.861
  0
LINE
  8
0
 10
12.0787
 20
10.861
 11
12.2068
 21
10.4389
  0
LINE
  8
0
 10
12.2068
 20
10.4389
 11
12.25
 21
10
  0
LINE
  8
0
 10
12.25
 20
10
 11
12.2068
 21
9.56104
  0
LINE
  8
0
 10
12.2068
 20
9.56104
 11
12.0787
 21
9.13896
  0
LINE
  8
0
 10
12.0787
 20
9.13896
 11
11.8708
 21
8.74995
  0
LINE
  8
0
 10
11.8708
 20
8.74995
 11
11.591
 21
8.409
  0
LINE
  8
0
 10
11.591
 20
8.409
 11
11.25
 21
8.12918
  0
LINE
  8
0
 10
11.25
 20
8.12918
 11
10.861
 21
7.92126
  0
LINE
  8
0
 10
10.861
 20
7.92126
 11
10.4389
 21
7.79323
  0
LINE
  8
0
 10
10.4389
 20
7.79323
 11
10
 21
7.75
  0
LINE
  8
0
 10
10
 20
7.75
 11
9.56104
 21
7.79323
  0
LINE
  8
0
 10
179.561
 20
7.79323
 11
179.139
 21
7.92126
  0
LINE
  8
0
 10
179.139
 20
7.92126
 11
178.75
 21
8.12918
  0
LINE
  8
0
 10
178.75
 20
8.12918
 11
178.409
 21
8.409
  0
LINE
  8
0
 10
178.409
 20
8.409
 11
178.129
 21
8.74995
  0
LINE
  8
0
 10
178.129
 20
8.74995
 11
177.921
 21
9.13896
  0
LINE
  8
0
 10
177.921
 20
9.13896
 11
177.793
 21
9.56104
  0
LINE
  8
0
 10
177.793
 20
9.56104
 11
177.75
 21
10
  0
LINE
  8
0
 10
177.75
 20
10
 11
177.793
 21
10.4389
  0
LINE
  8
0
 10
177.793
 20
10.4389
 11
177.921
 21
10.861
  0
LINE
  8
0
 10
177.921
 20
10.861
 11
178.129
 21
11.25
  0
LINE
  8
0
 10
178.129
 20
11.25
 11
178.409
 21
11.591
  0
LINE
  8
0
 10
178.409
 20
11.591
 11
178.75
 21
11.8708
  0
LINE
  8
0
 10
178.75
 20
11.8708
 11
179.139
 21
12.0787
  0
LINE
  8
0
 10
179.139
 20
12.0787
 11
179.561
 21
12.2068
  0
LINE
  8
0
 10
179.561
 20
12.2068
 11
180
 21
12.25
  0
LINE
  8
0
 10
180
 20
12.25
 11
180.439
 21
12.2068
  0
LINE
  8
0
 10
180.439
 20
12.2068
 11
180.861
 21
12.0787
  0
LINE
  8
0
 10
180.861
 20
12.0787
 11
181.25
 21
11.8708
  0
LINE
  8
0
 10
181.25
 20
11.8708
 11
181.591
 21
11.591
  0
LINE
  8
0
 10
181.591
 20
11.591
 11
181.871
 21
11.25
  0
LINE
  8
0
 10
181.871
 20
11.25
 11
182.079
 21
10.861
  0
LINE
  8
0
 10
182.079
 20
10.861
 11
182.207
 21
10.4389
  0
LINE
  8
0
 10
182.207
 20
10.4389
 11
182.25
 21
10
  0
LINE
  8
0
 10
182.25
 20
10
 11
182.207
 21
9.56104
  0
LINE
  8
0
 10
182.207
 20
9.56104
 11
182.079
 21
9.13896
  0
LINE
  8
0
 10
182.079
 20
9.13896
 11
181.871
 21
8.74995
  0
LINE
  8
0
 10
181.871
 20
8.74995
 11
181.591
 21
8.409
  0
LINE
  8
0
 10
181.591
 20
8.409
 11
181.25
 21
8.12918
  0
LINE
  8
0
 10
181.25
 20
8.12918
 11
180.861
 21
7.92126
  0
LINE
  8
0
 10
180.861
 20
7.92126
 11
180.439
 21
7.79323
  0
LINE
  8
0
 10
180.439
 20
7.79323
 11
180
 21
7.75
  0
LINE
  8
0
 10
180
 20
7.75
 11
179.561
 21
7.79323
  0
ENDSEC
  0
SECTION
  2
OBJECTS
  0
DICTIONARY
  0
ENDSEC
  0
EOF
